<svg xmlns="http://www.w3.org/2000/svg" xmlns:xlink="http://www.w3.org/1999/xlink" width="447" height="151" viewBox="0 0 447 151">
  <defs>
    <clipPath id="clip-path">
      <rect width="35.207" height="122.498" fill="none"/>
    </clipPath>
    <clipPath id="clip-path-2">
      <rect width="35.207" height="121.498" fill="none"/>
    </clipPath>
    <clipPath id="clip-path-3">
      <rect width="74" height="143" fill="none"/>
    </clipPath>
  </defs>
  <g id="Rectangle_1" data-name="Rectangle 1" transform="translate(149)" fill="#fff" stroke="#000" stroke-width="2">
    <rect width="150" height="150" stroke="none"/>
    <rect x="1" y="1" width="148" height="148" fill="none"/>
  </g>
  <path id="path6226" d="M70.281,0a2.208,2.208,0,0,0-2.3,2.206V14.05a54.406,54.406,0,1,0,43.126,19.644,2.366,2.366,0,1,0-3.64,3.022A49.68,49.68,0,1,1,59.86,19.666a48.9,48.9,0,0,1,8.123-.873v11.8a2.208,2.208,0,0,0,3.344,1.893L94.982,18.294a2.208,2.208,0,0,0,0-3.787L71.327.314A2.2,2.2,0,0,0,70.281,0Zm2.119,6.1L89.555,16.4,72.4,26.694ZM29.8,83.8a1.183,1.183,0,0,0-.97,1.788c9.4,16.285,21.4,26.612,40.416,26.612a1.183,1.183,0,1,0,0-2.365c-18.172,0-29.177-9.511-38.367-25.429A1.182,1.182,0,0,0,29.8,83.8Z" transform="translate(155.164 10)"/>
  <text id="Server" transform="translate(197 84)" fill="#707070" font-size="20" font-family="SegoeUI, Segoe UI"><tspan x="0" y="0">Server</tspan></text>
  <g id="arrow-pointing-to-right" transform="translate(318 15.502)" clip-path="url(#clip-path)">
    <g id="arrow-pointing-to-right-2" data-name="arrow-pointing-to-right" transform="translate(-63 1.084)">
      <path id="Path_2" data-name="Path 2" d="M14.927,49.123,10.269,45.2a.957.957,0,1,0-1.353,1.353l3.025,2.294H-19.043A.957.957,0,0,0-20,49.8a.957.957,0,0,0,.957.957H11.941L8.916,53.781a.957.957,0,0,0,1.353,1.353l4.658-4.658A.957.957,0,0,0,14.927,49.123Z" transform="translate(83 -46)"/>
    </g>
    <g id="arrow-pointing-to-right-3" data-name="arrow-pointing-to-right" transform="translate(-63 38.084)">
      <path id="Path_2-2" data-name="Path 2" d="M14.927,49.123,10.269,45.2a.957.957,0,1,0-1.353,1.353l3.025,2.294H-19.043A.957.957,0,0,0-20,49.8a.957.957,0,0,0,.957.957H11.941L8.916,53.781a.957.957,0,0,0,1.353,1.353l4.658-4.658A.957.957,0,0,0,14.927,49.123Z" transform="translate(83 -46)"/>
    </g>
    <g id="arrow-pointing-to-right-4" data-name="arrow-pointing-to-right" transform="translate(-63 75.084)">
      <path id="Path_2-3" data-name="Path 2" d="M14.927,49.123,10.269,45.2a.957.957,0,1,0-1.353,1.353l3.025,2.294H-19.043A.957.957,0,0,0-20,49.8a.957.957,0,0,0,.957.957H11.941L8.916,53.781a.957.957,0,0,0,1.353,1.353l4.658-4.658A.957.957,0,0,0,14.927,49.123Z" transform="translate(83 -46)"/>
    </g>
    <g id="arrow-pointing-to-right-5" data-name="arrow-pointing-to-right" transform="translate(-63 112.084)">
      <path id="Path_2-4" data-name="Path 2" d="M14.927,49.123,10.269,45.2a.957.957,0,1,0-1.353,1.353l3.025,2.294H-19.043A.957.957,0,0,0-20,49.8a.957.957,0,0,0,.957.957H11.941L8.916,53.781a.957.957,0,0,0,1.353,1.353l4.658-4.658A.957.957,0,0,0,14.927,49.123Z" transform="translate(83 -46)"/>
    </g>
  </g>
  <g id="Repeat_Grid_7" data-name="Repeat Grid 7" transform="translate(93.793 15.502)" clip-path="url(#clip-path-2)">
    <g transform="translate(-323.793 -176.502)">
      <path id="Path_2-5" data-name="Path 2" d="M-19.72,49.123l4.658-3.927a.957.957,0,0,1,1.353,0,.957.957,0,0,1,0,1.353l-3.025,2.294H14.251a.957.957,0,1,1,0,1.913H-16.734l3.025,3.025a.957.957,0,0,1,0,1.353.954.954,0,0,1-.676.28.954.954,0,0,1-.676-.28l-4.658-4.658A.957.957,0,0,1-19.72,49.123Z" transform="translate(343.793 131.586)"/>
      <path id="Path_2-6" data-name="Path 2" d="M-19.72,49.123l4.658-3.927a.957.957,0,0,1,1.353,0,.957.957,0,0,1,0,1.353l-3.025,2.294H14.251a.957.957,0,1,1,0,1.913H-16.734l3.025,3.025a.957.957,0,0,1,0,1.353.954.954,0,0,1-.676.28.954.954,0,0,1-.676-.28l-4.658-4.658A.957.957,0,0,1-19.72,49.123Z" transform="translate(343.793 168.586)"/>
      <path id="Path_2-7" data-name="Path 2" d="M-19.72,49.123l4.658-3.927a.957.957,0,0,1,1.353,0,.957.957,0,0,1,0,1.353l-3.025,2.294H14.251a.957.957,0,1,1,0,1.913H-16.734l3.025,3.025a.957.957,0,0,1,0,1.353.954.954,0,0,1-.676.28.954.954,0,0,1-.676-.28l-4.658-4.658A.957.957,0,0,1-19.72,49.123Z" transform="translate(343.793 205.586)"/>
      <path id="Path_2-8" data-name="Path 2" d="M-19.72,49.123l4.658-3.927a.957.957,0,0,1,1.353,0,.957.957,0,0,1,0,1.353l-3.025,2.294H14.251a.957.957,0,1,1,0,1.913H-16.734l3.025,3.025a.957.957,0,0,1,0,1.353.954.954,0,0,1-.676.28.954.954,0,0,1-.676-.28l-4.658-4.658A.957.957,0,0,1-19.72,49.123Z" transform="translate(343.793 242.586)"/>
    </g>
  </g>
  <g id="Repeat_Grid_12" data-name="Repeat Grid 12" transform="translate(0 8)" clip-path="url(#clip-path-3)">
    <g id="Group_1" data-name="Group 1" transform="translate(-232 -169)">
      <g id="Rectangle_12" data-name="Rectangle 12" transform="translate(232 169)" fill="#fff" stroke="#000" stroke-width="2">
        <rect width="74" height="26" stroke="none"/>
        <rect x="1" y="1" width="72" height="24" fill="none"/>
      </g>
      <text id="device" transform="translate(252 187)" fill="#707070" font-size="12" font-family="SegoeUI, Segoe UI"><tspan x="0" y="0">device</tspan></text>
    </g>
    <g id="Group_1-2" data-name="Group 1" transform="translate(-232 -132)">
      <g id="Rectangle_12-2" data-name="Rectangle 12" transform="translate(232 169)" fill="#fff" stroke="#000" stroke-width="2">
        <rect width="74" height="26" stroke="none"/>
        <rect x="1" y="1" width="72" height="24" fill="none"/>
      </g>
      <text id="device-2" data-name="device" transform="translate(252 187)" fill="#707070" font-size="12" font-family="SegoeUI, Segoe UI"><tspan x="0" y="0">device</tspan></text>
    </g>
    <g id="Group_1-3" data-name="Group 1" transform="translate(-232 -95)">
      <g id="Rectangle_12-3" data-name="Rectangle 12" transform="translate(232 169)" fill="#fff" stroke="#000" stroke-width="2">
        <rect width="74" height="26" stroke="none"/>
        <rect x="1" y="1" width="72" height="24" fill="none"/>
      </g>
      <text id="device-3" data-name="device" transform="translate(252 187)" fill="#707070" font-size="12" font-family="SegoeUI, Segoe UI"><tspan x="0" y="0">device</tspan></text>
    </g>
    <g id="Group_1-4" data-name="Group 1" transform="translate(-232 -58)">
      <g id="Rectangle_12-4" data-name="Rectangle 12" transform="translate(232 169)" fill="#fff" stroke="#000" stroke-width="2">
        <rect width="74" height="26" stroke="none"/>
        <rect x="1" y="1" width="72" height="24" fill="none"/>
      </g>
      <text id="device-4" data-name="device" transform="translate(252 187)" fill="#707070" font-size="12" font-family="SegoeUI, Segoe UI"><tspan x="0" y="0">device</tspan></text>
    </g>
  </g>
  <g id="Repeat_Grid_11" data-name="Repeat Grid 11" transform="translate(373 8)" clip-path="url(#clip-path-3)">
    <g id="Group_1-5" data-name="Group 1" transform="translate(-232 -169)">
      <g id="Rectangle_12-5" data-name="Rectangle 12" transform="translate(232 169)" fill="#fff" stroke="#000" stroke-width="2">
        <rect width="74" height="26" stroke="none"/>
        <rect x="1" y="1" width="72" height="24" fill="none"/>
      </g>
      <text id="device-5" data-name="device" transform="translate(252 187)" fill="#707070" font-size="12" font-family="SegoeUI, Segoe UI"><tspan x="0" y="0">device</tspan></text>
    </g>
    <g id="Group_1-6" data-name="Group 1" transform="translate(-232 -132)">
      <g id="Rectangle_12-6" data-name="Rectangle 12" transform="translate(232 169)" fill="#fff" stroke="#000" stroke-width="2">
        <rect width="74" height="26" stroke="none"/>
        <rect x="1" y="1" width="72" height="24" fill="none"/>
      </g>
      <text id="device-6" data-name="device" transform="translate(252 187)" fill="#707070" font-size="12" font-family="SegoeUI, Segoe UI"><tspan x="0" y="0">device</tspan></text>
    </g>
    <g id="Group_1-7" data-name="Group 1" transform="translate(-232 -95)">
      <g id="Rectangle_12-7" data-name="Rectangle 12" transform="translate(232 169)" fill="#fff" stroke="#000" stroke-width="2">
        <rect width="74" height="26" stroke="none"/>
        <rect x="1" y="1" width="72" height="24" fill="none"/>
      </g>
      <text id="device-7" data-name="device" transform="translate(252 187)" fill="#707070" font-size="12" font-family="SegoeUI, Segoe UI"><tspan x="0" y="0">device</tspan></text>
    </g>
    <g id="Group_1-8" data-name="Group 1" transform="translate(-232 -58)">
      <g id="Rectangle_12-8" data-name="Rectangle 12" transform="translate(232 169)" fill="#fff" stroke="#000" stroke-width="2">
        <rect width="74" height="26" stroke="none"/>
        <rect x="1" y="1" width="72" height="24" fill="none"/>
      </g>
      <text id="device-8" data-name="device" transform="translate(252 187)" fill="#707070" font-size="12" font-family="SegoeUI, Segoe UI"><tspan x="0" y="0">device</tspan></text>
    </g>
  </g>
</svg>
